<?xml version="1.0" encoding="UTF-8"?>
<svg xmlns="http://www.w3.org/2000/svg" id="Ebene_1" data-name="Ebene 1" viewBox="0 0 191.57 34.02" width="100%" height="100%"> <defs> <style>.cls-1,.cls-2{fill:#fff;}.cls-2{stroke:#585856;stroke-linecap:round;stroke-linejoin:round;stroke-width:0;}</style> </defs> <title>Logo</title> <path class="cls-1" d="M22.06,58.38h1.22v2.74a5.11,5.11,0,0,1-2.89.95,3.7,3.7,0,1,1,.08-7.4,4.48,4.48,0,0,1,2.86,1l-.79,1a3.13,3.13,0,0,0-2.06-.82,2.45,2.45,0,1,0,0,4.91,3.36,3.36,0,0,0,1.57-.46Z" transform="translate(-16 -28.05)"/> <path class="cls-1" d="M27.46,54.71v6h3.15V62H26.07V54.71Z" transform="translate(-16 -28.05)"/> <path class="cls-1" d="M40.08,58.36a3.89,3.89,0,1,1-3.89-3.69A3.74,3.74,0,0,1,40.08,58.36Zm-6.35,0a2.47,2.47,0,0,0,2.48,2.46,2.45,2.45,0,1,0-2.48-2.46Z" transform="translate(-16 -28.05)"/> <path class="cls-1" d="M48.24,56.53A1.6,1.6,0,0,1,47,58.15,1.78,1.78,0,0,1,48.52,60c0,1.25-1,2-2.7,2H42.49V54.71h3.24C47.28,54.71,48.24,55.41,48.24,56.53Zm-1.43.25c0-.55-.44-.87-1.16-.86H43.88v1.77h1.77C46.38,57.69,46.81,57.35,46.81,56.78Zm.26,3c0-.59-.53-1-1.42-.95H43.88v1.93h1.77C46.54,60.8,47.07,60.44,47.07,59.81Z" transform="translate(-16 -28.05)"/> <path class="cls-1" d="M55.8,60.46H52.24L51.59,62H50.15l3.2-7.29h1.45L58,62h-1.5Zm-.5-1.2L54,56.2l-1.29,3.06Z" transform="translate(-16 -28.05)"/> <path class="cls-1" d="M61.41,54.71v6h3.15V62H60V54.71Z" transform="translate(-16 -28.05)"/> <path class="cls-1" d="M74.43,55.91a2.42,2.42,0,1,0,0,4.85,2.92,2.92,0,0,0,2-.85l.82.92a4.16,4.16,0,0,1-2.88,1.25,3.7,3.7,0,1,1,.05-7.4,4.06,4.06,0,0,1,2.81,1.17l-.81,1A2.74,2.74,0,0,0,74.43,55.91Z" transform="translate(-16 -28.05)"/> <path class="cls-1" d="M86.61,58.36a3.89,3.89,0,1,1-3.89-3.69A3.74,3.74,0,0,1,86.61,58.36Zm-6.35,0a2.47,2.47,0,0,0,2.48,2.46,2.45,2.45,0,1,0-2.48-2.46Z" transform="translate(-16 -28.05)"/> <path class="cls-1" d="M94.9,57.22c0,1.67-1.05,2.64-2.89,2.64H90.42V62H89V54.71h3C93.84,54.71,94.9,55.61,94.9,57.22Zm-1.32,0c0-.9-.59-1.33-1.64-1.33H90.42v2.7h1.52C93,58.63,93.57,58.18,93.57,57.26Z" transform="translate(-16 -28.05)"/> <path class="cls-1" d="M100.44,59.62V62H99V59.67l-2.72-5h1.42l2,3.43,2-3.43h1.41Z" transform="translate(-16 -28.05)"/> <path class="cls-1" d="M109.73,62l-1.26-2.16h-1.91V62h-1.4V54.71h3c1.89,0,3,.91,3,2.51a2.37,2.37,0,0,1-1.45,2.37l1.6,2.42Zm-3.17-3.38h1.65c1,0,1.63-.45,1.63-1.37s-.58-1.33-1.63-1.33h-1.65Z" transform="translate(-16 -28.05)"/> <path class="cls-1" d="M115.28,54.71V62h-1.4V54.71Z" transform="translate(-16 -28.05)"/> <path class="cls-1" d="M123.2,58.38h1.22v2.74a5.11,5.11,0,0,1-2.89.95,3.7,3.7,0,1,1,.08-7.4,4.48,4.48,0,0,1,2.86,1l-.79,1a3.13,3.13,0,0,0-2.06-.82,2.45,2.45,0,1,0,0,4.91,3.36,3.36,0,0,0,1.57-.46Z" transform="translate(-16 -28.05)"/> <path class="cls-1" d="M128.6,54.71v3.12h3.64V54.71h1.4V62h-1.4V59H128.6v3h-1.4V54.71Z" transform="translate(-16 -28.05)"/> <path class="cls-1" d="M141.75,54.71v1.24h-2.27V62h-1.41V55.95H135.8V54.71Z" transform="translate(-16 -28.05)"/> <path class="cls-1" d="M152.79,62l-1.26-2.16h-1.91V62h-1.4V54.71h3c1.89,0,3,.91,3,2.51a2.37,2.37,0,0,1-1.45,2.37l1.6,2.42Zm-3.17-3.38h1.65c1,0,1.63-.45,1.63-1.37s-.58-1.33-1.63-1.33h-1.65Z" transform="translate(-16 -28.05)"/> <path class="cls-1" d="M162.28,54.71v1.22h-3.95v1.8h3.54v1.22h-3.54v1.83h4.07V62h-5.47V54.71Z" transform="translate(-16 -28.05)"/> <path class="cls-1" d="M169.95,58.38h1.22v2.74a5.11,5.11,0,0,1-2.89.95,3.7,3.7,0,1,1,.08-7.4,4.48,4.48,0,0,1,2.86,1l-.79,1a3.13,3.13,0,0,0-2.06-.82,2.45,2.45,0,1,0,0,4.91,3.36,3.36,0,0,0,1.57-.46Z" transform="translate(-16 -28.05)"/> <path class="cls-1" d="M175.35,54.71V62H174V54.71Z" transform="translate(-16 -28.05)"/> <path class="cls-1" d="M180.72,55.92c-.66,0-1.08.24-1.08.69,0,1.48,3.92.68,3.91,3.29,0,1.37-1.19,2.16-2.79,2.16a4.74,4.74,0,0,1-3.08-1.17l.58-1.18a4.1,4.1,0,0,0,2.52,1.07c.78,0,1.25-.29,1.25-.8,0-1.52-3.92-.66-3.92-3.25,0-1.27,1.09-2.08,2.73-2.08a5,5,0,0,1,2.64.77l-.56,1.21A4.67,4.67,0,0,0,180.72,55.92Z" transform="translate(-16 -28.05)"/> <path class="cls-1" d="M191.18,54.71v1.24h-2.27V62H187.5V55.95h-2.27V54.71Z" transform="translate(-16 -28.05)"/> <path class="cls-1" d="M198.69,54.71v1.22h-3.95v1.8h3.54v1.22h-3.54v1.83h4.07V62h-5.47V54.71Z" transform="translate(-16 -28.05)"/> <path class="cls-1" d="M206,62l-1.26-2.16h-1.91V62h-1.4V54.71h3c1.89,0,3,.91,3,2.51A2.37,2.37,0,0,1,206,59.58l1.6,2.42Zm-3.17-3.38h1.65c1,0,1.63-.45,1.63-1.37s-.58-1.33-1.63-1.33h-1.65Z" transform="translate(-16 -28.05)"/> <path class="cls-1" d="M31.36,50.23h0l.05,0a11,11,0,0,0,4.42-2.64l-2.75-2.78h0v0Z" transform="translate(-16 -28.05)"/> <path class="cls-1" d="M27.58,31.89a7.75,7.75,0,0,1,4.5,1.39l-1-1.06-1.51-1.63L25.32,30,16,39.92l5.75,6.6,9.48,3.68L32.93,45a8.17,8.17,0,0,1-5.35,2,7.41,7.41,0,0,1-5.84-2.37A8.34,8.34,0,0,1,22.11,34,7.49,7.49,0,0,1,27.58,31.89Z" transform="translate(-16 -28.05)"/> <polygon class="cls-1" points="11.22 0 11.16 0.01 9.41 1.87 13.46 2.42 11.22 0"/> <path class="cls-1" d="M25.28,29.89,27,28.06a12.24,12.24,0,0,0-5.32,1.35Z" transform="translate(-16 -28.05)"/> <path class="cls-1" d="M21.72,46.6l-4.59-1.78a10.23,10.23,0,0,0,1.63,2.5,10.59,10.59,0,0,0,6.49,3.33Z" transform="translate(-16 -28.05)"/> <path class="cls-1" d="M21.57,46.43,16,40.06a12.57,12.57,0,0,0,1.05,4.63Z" transform="translate(-16 -28.05)"/> <path class="cls-1" d="M31.24,50.31h0l-9.32-3.62,3.48,4a15.63,15.63,0,0,0,2.17.15A12.88,12.88,0,0,0,31.24,50.31Z" transform="translate(-16 -28.05)"/> <path class="cls-1" d="M25.19,30l-3.67-.5a10.12,10.12,0,0,0-2.81,2.29A11.82,11.82,0,0,0,16,39.56q0,.12,0,.23Z" transform="translate(-16 -28.05)"/> <path class="cls-1" d="M35.51,31.4,32,30.92l-2.3-.31,2.88,3.1.25.23Z" transform="translate(-16 -28.05)"/> <path class="cls-1" d="M35.5,31.29A11.22,11.22,0,0,0,27.58,28h-.21l2.27,2.44Z" transform="translate(-16 -28.05)"/> <path class="cls-1" d="M37.32,39.56a13.09,13.09,0,0,0,.49,3.6l6.27-12.63-2.36-.38A11.65,11.65,0,0,0,37.32,39.56Z" transform="translate(-16 -28.05)"/> <path class="cls-1" d="M44.13,30.42l1-1.92a10.28,10.28,0,0,0-3.25,1.56Z" transform="translate(-16 -28.05)"/> <path class="cls-1" d="M45.22,28.46l-1,2L52.8,31.8l-2.62-3.66a13.74,13.74,0,0,0-1.64-.1A12.81,12.81,0,0,0,45.22,28.46Z" transform="translate(-16 -28.05)"/> <path class="cls-1" d="M52.89,31.92l-8.7-1.38L37.85,43.31h0l4.19,2.25,4.75,2.54L58,46h0a12.2,12.2,0,0,0,1.64-4.68Zm1.21,12.8a6.72,6.72,0,0,1-5.55,2.41c-5.21,0-7.17-3.88-7.26-7.51a8.17,8.17,0,0,1,2.13-5.92,7,7,0,0,1,5.13-2,6.83,6.83,0,0,1,5.08,2,8.25,8.25,0,0,1,2.15,5.93A8.44,8.44,0,0,1,54.1,44.72Z" transform="translate(-16 -28.05)"/> <path class="cls-1" d="M53,31.94l6.6,9.19a13.73,13.73,0,0,0,.11-1.6,12.1,12.1,0,0,0-2-6.86Z" transform="translate(-16 -28.05)"/> <path class="cls-1" d="M57.67,46.44l.23-.35-11,2.1,4,2.15.38.21A10,10,0,0,0,57.67,46.44Z" transform="translate(-16 -28.05)"/> <path class="cls-1" d="M52.95,31.82l4.74.72-.29-.39a10.37,10.37,0,0,0-7.07-4Z" transform="translate(-16 -28.05)"/> <path class="cls-1" d="M46.63,48.14,37.9,43.47A10.2,10.2,0,0,0,42,49Z" transform="translate(-16 -28.05)"/> <path class="cls-1" d="M42.12,49.11a11.76,11.76,0,0,0,6.43,1.71,13.79,13.79,0,0,0,2.64-.25l-4.41-2.36Z" transform="translate(-16 -28.05)"/> <polygon class="cls-1" points="48.16 18.87 47.91 18.56 46.9 17.31 46.9 21.98 48.16 18.87"/> <polygon class="cls-1" points="62.42 5.92 63.2 2.93 56.69 1.95 62.42 5.92"/> <polygon class="cls-1" points="49.88 3.17 52.78 1.36 48.14 0.67 47.07 0.51 49.88 3.17"/> <polygon class="cls-1" points="56.25 1.78 54.39 0.49 53.08 1.3 56.25 1.78"/> <line class="cls-2" x1="65.3" y1="8.02" x2="65.3" y2="8.02"/> <path class="cls-1" d="M81.19,35.92a8.26,8.26,0,0,0-.35-2.15A7.47,7.47,0,0,0,79.31,31l-.8,3h0Z" transform="translate(-16 -28.05)"/> <path class="cls-1" d="M72.49,29.86l6.71,1a8,8,0,0,0-6-2.42H70.47Z" transform="translate(-16 -28.05)"/> <polygon class="cls-1" points="47.31 2.15 46.9 0.59 46.9 5.01 47.84 4.42 47.9 4.39 47.31 2.15"/> <path class="cls-1" d="M68.92,29.32l1.39-.86H68l-4.67,0Z" transform="translate(-16 -28.05)"/> <path class="cls-1" d="M78.48,34.14l-1.65,6.27-.46,1.75,1.57.35a7.63,7.63,0,0,0,3.25-6.47Z" transform="translate(-16 -28.05)"/> <path class="cls-1" d="M76,43.44a7.52,7.52,0,0,0,1.78-.84l-1.47-.33Z" transform="translate(-16 -28.05)"/> <polygon class="cls-1" points="50.32 13.55 47.93 4.5 46.9 5.14 46.9 17.14 48.2 18.75 50.32 13.55"/> <polygon class="cls-1" points="50.93 22.27 48.23 18.96 46.9 22.26 46.9 22.28 50.93 22.28 50.93 22.27"/> <polygon class="cls-1" points="50.93 12.07 50.93 4.31 49.86 3.3 48.3 4.27 48.02 4.44 50.38 13.39 50.92 12.06 50.93 12.07"/> <path class="cls-1" d="M73.19,43.86a9.42,9.42,0,0,0,2.73-.38l.32-1.23-9.17-2.07H67l-.58,1.43L67,43.86h6.16Z" transform="translate(-16 -28.05)"/> <path class="cls-1" d="M67,32.3h6.19a3.81,3.81,0,0,1,4,3.95,4,4,0,0,1-1,2.7,3.93,3.93,0,0,1-3,1.23H67.53l8.73,2,2.12-8.07L72.45,30l-3.5-.53-3,1.85,1.05,1Z" transform="translate(-16 -28.05)"/> <polygon class="cls-1" points="50.93 15.84 50.92 15.84 50.36 13.73 48.28 18.85 50.93 22.1 50.93 15.84"/> <polygon class="cls-1" points="48 4.33 49.78 3.22 47 0.6 48 4.33"/> <polygon class="cls-1" points="78.98 11.54 74.88 5.56 74.98 11.97 76.92 16.91 78.98 11.59 78.98 11.54"/> <polygon class="cls-1" points="78.98 22.18 78.98 11.89 76.97 17.06 78.98 22.18"/> <polygon class="cls-1" points="66.6 0.44 74.72 5.33 71.36 0.44 66.6 0.44"/> <polygon class="cls-1" points="74.77 5.49 66.52 0.51 66.52 0.56 74.87 11.84 74.77 5.49"/> <polygon class="cls-1" points="76.86 17.06 74.95 12.19 74.95 22.13 76.86 17.06"/> <polygon class="cls-1" points="75.01 22.28 78.9 22.28 76.92 17.21 75.01 22.28"/> <polygon class="cls-1" points="92.81 16.1 92.85 16.25 94.1 13.51 92.1 13 92.81 16.1"/> <polygon class="cls-1" points="90.07 4.09 94.13 2.73 83.04 0.52 87.32 4.09 90 4.09 90.07 4.09"/> <polygon class="cls-1" points="92.77 16.41 91.98 12.97 90.1 12.48 90.1 22.24 92.77 16.41"/> <polygon class="cls-1" points="90.1 4.83 90.1 12.3 91.28 9.92 90.1 4.83"/> <polygon class="cls-1" points="91.32 10.09 90.18 12.39 91.95 12.85 91.32 10.09"/> <polygon class="cls-1" points="82.81 0.47 80.48 4.09 87.16 4.09 82.81 0.47"/> <polygon class="cls-1" points="94.34 2.77 90.07 4.21 91.35 9.77 94.13 4.15 94.13 4.15 94.13 4.09 101 4.09 94.34 2.77"/> <polygon class="cls-1" points="94.13 22.25 94.12 22.26 92.81 16.58 90.2 22.28 94.13 22.28 94.13 22.25"/> <polygon class="cls-1" points="94.54 2.7 101.09 4 101.09 0.5 94.54 2.7"/> <polygon class="cls-1" points="91.39 9.94 92.07 12.88 94.13 13.41 94.13 4.38 91.39 9.94"/> <polygon class="cls-1" points="94.13 21.82 94.13 13.7 92.89 16.42 94.13 21.82"/> <polygon class="cls-1" points="100.93 0.44 83.17 0.44 94.33 2.66 100.93 0.44"/> <polygon class="cls-1" points="107.2 12.84 103.74 0.67 103.74 22.08 107.2 12.84"/> <polygon class="cls-1" points="108.21 14.94 111.78 14.94 111.78 14.94 113.25 13.7 108.21 14.94"/> <polygon class="cls-1" points="117.75 18.89 112.03 15.17 118.22 22.28 118.24 22.28 119.54 21.07 120.19 20.48 117.75 18.89"/> <polygon class="cls-1" points="107.25 13.02 103.78 22.28 107.77 22.28 107.77 14.94 107.31 13.22 107.25 13.02"/> <polygon class="cls-1" points="120.28 20.54 118.4 22.28 122.95 22.28 120.28 20.54"/> <polygon class="cls-1" points="114.55 13.84 113.81 13.56 113.59 13.62 113.48 13.64 111.91 14.97 120.27 20.41 120.99 19.73 116.4 14.55 114.55 13.84"/> <polygon class="cls-1" points="120.36 20.46 123.07 22.23 123.07 22.07 121.06 19.81 120.36 20.46"/> <polygon class="cls-1" points="113.49 13.5 113.54 13.46 107.9 11.3 107.31 12.85 107.9 14.91 113.43 13.55 113.49 13.5"/> <polygon class="cls-1" points="107.88 11.2 107.88 11.21 107.88 11.21 107.88 11.2"/> <polygon class="cls-1" points="113.99 13.22 113.75 13.42 113.82 13.45 120.83 11.73 119.22 8.83 113.99 13.22"/> <path class="cls-1" d="M124.13,32.23h6a3.5,3.5,0,0,1,3.82,3.56,3.46,3.46,0,0,1-3.82,3.56h-5.88l5.39,2.06,5.53-4.65-4.58-8.23-6.45,3.69Z" transform="translate(-16 -28.05)"/> <path class="cls-1" d="M123.91,32.23l6.55-3.74h-.34l-5.22,0-5,0,.58.55,3.41,3.23Z" transform="translate(-16 -28.05)"/> <path class="cls-1" d="M138,35.7a7.7,7.7,0,0,0-.08-1.11L135.3,36.8l1.62,2.91A7.58,7.58,0,0,0,138,35.7Z" transform="translate(-16 -28.05)"/> <path class="cls-1" d="M130.68,28.5l4.57,8.21,2.62-2.24a6.9,6.9,0,0,0-1.9-3.78A7.88,7.88,0,0,0,130.68,28.5Z" transform="translate(-16 -28.05)"/> <path class="cls-1" d="M130,41.56l2.53,1a6.52,6.52,0,0,0,4.27-2.64Z" transform="translate(-16 -28.05)"/> <polygon class="cls-1" points="107.27 12.67 107.77 11.32 107.77 11.32 107.77 4.26 103.8 0.49 107.27 12.67"/> <polygon class="cls-1" points="133.33 14.39 131.28 16.46 131.28 16.48 130.03 21.58 131.6 18.14 131.6 18.13 139.44 16.77 133.33 14.39"/> <polygon class="cls-1" points="139.81 16.91 139.64 16.85 132.16 18.14 142.96 18.14 139.81 16.91"/> <polygon class="cls-1" points="143.26 16.22 142.81 16.3 143.1 17.77 143.17 18.11 143.23 18.13 143.19 18.21 143.2 18.23 143.2 18.23 143.21 18.28 143.2 18.28 144.95 22.2 145.15 21.33 145.73 18.69 143.26 16.22"/> <polygon class="cls-1" points="125.55 22.28 129.71 22.28 129.79 22.1 131.13 16.62 125.55 22.28"/> <polygon class="cls-1" points="146.48 15.81 146.4 16.17 145.85 18.66 149.32 22.13 146.48 15.81"/> <polygon class="cls-1" points="145.82 18.78 145.04 22.28 149.31 22.28 145.82 18.78"/> <polygon class="cls-1" points="137.36 4.87 137.37 4.86 137.38 4.9 139.46 0.44 135.2 0.44 137.36 4.87"/> <polygon class="cls-1" points="139.58 0.44 142.2 13.31 142.63 15.44 143.3 16.11 146.38 15.57 139.59 0.44 139.58 0.44"/> <polygon class="cls-1" points="132.45 11.2 135 0.77 125.35 22.28 125.4 22.28 131.18 16.42 132.45 11.2"/> <polygon class="cls-1" points="133.62 14.39 133.62 14.39 139.65 16.74 142.68 16.21 142.53 15.49 141.43 14.39 133.62 14.39"/> <polygon class="cls-1" points="137.44 5.03 141.48 14.29 141.48 14.29 142.49 15.3 139.5 0.6 137.44 5.03"/> <polygon class="cls-1" points="143.39 16.2 145.76 18.57 146.4 15.68 143.39 16.2"/> <polygon class="cls-1" points="142.7 16.32 139.84 16.81 143.06 18.06 142.7 16.32"/> <polygon class="cls-1" points="142.78 16.2 143.17 16.13 142.67 15.63 142.78 16.2"/> <polygon class="cls-1" points="131.32 16.27 133.23 14.34 133.24 14.31 137.31 5 135.15 0.58 131.32 16.27"/> <path class="cls-1" d="M180.87,50.23h0v0a11,11,0,0,0,4.42-2.64l-2.71-2.74Z" transform="translate(-16 -28.05)"/> <path class="cls-1" d="M176.51,28.05a12.23,12.23,0,0,0-5.42,1.38l3.7.46Z" transform="translate(-16 -28.05)"/> <path class="cls-1" d="M171.07,46.43,165.47,40a12.59,12.59,0,0,0,1,4.67Z" transform="translate(-16 -28.05)"/> <path class="cls-1" d="M171.22,46.6l-4.65-1.8a10.24,10.24,0,0,0,1.64,2.52,10.61,10.61,0,0,0,6.54,3.34Z" transform="translate(-16 -28.05)"/> <path class="cls-1" d="M170.93,29.52a10.12,10.12,0,0,0-2.75,2.25,11.81,11.81,0,0,0-2.72,7.79c0,.09,0,.19,0,.28L174.7,30Z" transform="translate(-16 -28.05)"/> <path class="cls-1" d="M180.73,50.3h0l-5.22-2-4.08-1.58,3.48,4h0a15.67,15.67,0,0,0,2.12.14A12.87,12.87,0,0,0,180.73,50.3Z" transform="translate(-16 -28.05)"/> <polygon class="cls-1" points="160.72 0 160.66 0.01 158.92 1.87 162.97 2.42 162 1.38 160.72 0"/> <polygon class="cls-1" points="163.75 3.1 166.34 5.88 168.97 3.35 165.09 2.82 163.25 2.57 163.75 3.1"/> <path class="cls-1" d="M176.87,28l2.27,2.44,5.81.79A11.21,11.21,0,0,0,177,28Z" transform="translate(-16 -28.05)"/> <path class="cls-1" d="M174.83,30l-9.29,9.91,5.75,6.6,9.48,3.68,1.69-5.26A8.14,8.14,0,0,1,177,47a7.41,7.41,0,0,1-5.84-2.37A8.34,8.34,0,0,1,171.56,34,7.49,7.49,0,0,1,177,31.89a7.69,7.69,0,0,1,4.65,1.5l-2.6-2.8Z" transform="translate(-16 -28.05)"/> <polygon class="cls-1" points="173.49 18.32 171.84 22.19 171.8 22.28 175.67 22.28 175.66 22.25 173.49 18.32"/> <polygon class="cls-1" points="175.51 13.35 175.81 12.65 175.81 12.57 174.53 8.82 172.39 7.29 171.78 6.85 171.78 14.98 173.48 18.08 175.51 13.35"/> <polygon class="cls-1" points="175.81 12.92 173.55 18.2 175.79 22.28 175.81 22.28 175.81 12.92"/> <polygon class="cls-1" points="179.6 13.08 177.12 10.9 176.44 11.9 175.94 12.62 184.89 22.09 181.26 14.53 179.6 13.08"/> <polygon class="cls-1" points="181.34 14.47 190.1 22.2 190.1 22.1 179.85 11.36 181.34 14.47"/> <polygon class="cls-1" points="190.03 22.28 181.46 14.71 185.1 22.28 190.03 22.28"/> <polygon class="cls-1" points="174.62 8.76 175.81 9.61 175.81 0.44 171.78 0.44 171.78 0.46 174.62 8.76"/> <polygon class="cls-1" points="175.91 9.69 176.88 10.54 177.1 10.74 179.52 7.21 175.96 9.63 175.91 9.69 175.91 9.69"/> <polygon class="cls-1" points="177.04 10.82 175.75 9.71 174.68 8.93 175.9 12.5 177.04 10.82"/> <polygon class="cls-1" points="179.76 7.04 177.18 10.81 181.13 14.28 179.57 11.15 179.53 11 179.55 10.98 189.16 0.62 179.76 7.04"/> <polygon class="cls-1" points="171.78 0.79 171.78 6.72 174.47 8.65 171.78 0.79"/> <polygon class="cls-1" points="171.78 22.06 173.43 18.2 171.78 15.2 171.78 22.06"/> <polygon class="cls-1" points="179.69 6.96 183.76 0.95 176.26 9.3 179.69 6.96"/> <polygon class="cls-1" points="179.93 6.8 189.24 0.44 184.24 0.44 179.93 6.8"/> </svg>
